<svg id="Icons" xmlns="http://www.w3.org/2000/svg" viewBox="0 0 491.38 359.2"><defs><style>.cls-1{fill:#fff;}</style></defs><title>2</title><g id="_4" data-name=" 4"><path class="cls-1" d="M423.44,90.12A7,7,0,0,1,417.77,79l54.6-75.41a7,7,0,0,1,11.35,8.19v0l-54.6,75.41A7,7,0,0,1,423.44,90.12Z" transform="translate(0 0)"/><path class="cls-1" d="M116.06,249.22a7,7,0,0,1-5-11.85l55.32-57.43a7,7,0,1,1,10.31,9.47l-.23.24L121.1,247.08A7,7,0,0,1,116.06,249.22Z" transform="translate(0 0)"/><path class="cls-1" d="M341.14,195.19a7,7,0,0,1-5.45-11.39l40-49.66a7,7,0,1,1,10.91,8.78h0l-40,49.66A7,7,0,0,1,341.14,195.19Z" transform="translate(0 0)"/><path class="cls-1" d="M287.46,208a6.92,6.92,0,0,1-2.87-.62l-60.08-27a7,7,0,1,1,5.75-12.77l60.08,27A7,7,0,0,1,287.46,208Z" transform="translate(0 0)"/><path class="cls-1" d="M468.88,359.2H7a7,7,0,0,1-7-7V16.05a7,7,0,0,1,14,0V345.2H468.88a7,7,0,0,1,0,14Z" transform="translate(0 0)"/><path class="cls-1" d="M91.87,309.2a41.87,41.87,0,1,1,41.87-41.87h0A41.91,41.91,0,0,1,91.87,309.2Zm0-69.73a27.87,27.87,0,1,0,27.87,27.87h0A27.9,27.9,0,0,0,91.87,239.47Z" transform="translate(0 0)"/><path class="cls-1" d="M195.57,201.55a41.87,41.87,0,1,1,41.87-41.87h0A41.93,41.93,0,0,1,195.57,201.55Zm0-69.74a27.87,27.87,0,1,0,27.87,27.87h0A27.9,27.9,0,0,0,195.57,131.81Z" transform="translate(0 0)"/><path class="cls-1" d="M319.28,257.22a41.87,41.87,0,1,1,41.87-41.87h0A41.93,41.93,0,0,1,319.28,257.22Zm0-69.74a27.87,27.87,0,1,0,27.87,27.87h0a27.9,27.9,0,0,0-27.87-27.87Z" transform="translate(0 0)"/><path class="cls-1" d="M403,153.24a41.87,41.87,0,1,1,41.87-41.87h0A41.9,41.9,0,0,1,403,153.24Zm0-69.74a27.87,27.87,0,1,0,27.87,27.87h0A27.9,27.9,0,0,0,403,83.5Z" transform="translate(0 0)"/><path class="cls-1" d="M484.34,45.67A7,7,0,0,1,477.47,40l-4.74-24.79-23,4.4A7,7,0,1,1,447,5.89l.14,0L477,.13a7,7,0,0,1,8.19,5.55l6.06,31.67a7,7,0,0,1-5.55,8.19A7.74,7.74,0,0,1,484.34,45.67Z" transform="translate(0 0)"/></g></svg>