<svg id="Icons" xmlns="http://www.w3.org/2000/svg" viewBox="0 0 423.53 516.34"><defs><style>.cls-1{fill:#fff;}</style></defs><title>3</title><g id="_7" data-name="7"><path class="cls-1" d="M211.77,516.34a7,7,0,0,1-4-1.26L86.9,430.56A180.37,180.37,0,0,1,11.56,293L0,97.09a30.05,30.05,0,0,1,23.85-30.9,114.25,114.25,0,0,1,21.77-1.68c1.64,0,3.32,0,5,0A181.75,181.75,0,0,0,159.45,31.22l38-26.67a25.06,25.06,0,0,1,28.73,0l39.11,27.29a184.13,184.13,0,0,0,105.93,33c1.34,0,2.69,0,4,0,1.54,0,3.06-.05,4.56-.05a104.73,104.73,0,0,1,19.74,1.53,30,30,0,0,1,24,30.88L412,293.05a180.39,180.39,0,0,1-75.28,137.47L215.78,515.08A7,7,0,0,1,211.77,516.34ZM45.66,78.51a100.49,100.49,0,0,0-19,1.4A15.75,15.75,0,0,0,14,96.3L25.53,292.23A165.6,165.6,0,0,0,95,419.13L211.77,500.8l116.84-81.71A165.52,165.52,0,0,0,398,292.28L409.51,96.34A16,16,0,0,0,396.78,80a91.22,91.22,0,0,0-17-1.26c-1.4,0-2.82,0-4.26.05s-2.9,0-4.34,0A198,198,0,0,1,257.25,43.27L218.14,16a11,11,0,0,0-12.67,0l-38,26.67A195.9,195.9,0,0,1,54.39,78.6c-1.34,0-2.67,0-4,0C48.78,78.53,47.21,78.51,45.66,78.51Z"/><path class="cls-1" d="M211.76,359.05A112.54,112.54,0,1,1,324.3,246.51,112.67,112.67,0,0,1,211.76,359.05Zm0-211.08a98.54,98.54,0,1,0,98.54,98.54A98.66,98.66,0,0,0,211.76,148Z"/><path class="cls-1" d="M198.65,287.63a7,7,0,0,1-5-2.05l-28.79-28.79a7,7,0,0,1,9.9-9.9l23.28,23.28L248.22,208a7,7,0,1,1,10.9,8.79L204.1,285a7,7,0,0,1-5.08,2.59Z"/></g></svg>