<svg id="Icons" xmlns="http://www.w3.org/2000/svg" viewBox="0 0 414.05 454"><defs><style>.cls-1{fill:#fff;}</style></defs><title>1</title><g id="_10" data-name=" 10"><path class="cls-1" d="M284.16,431.19a7,7,0,0,1,0-14,73,73,0,0,0,72.89-72.9,7,7,0,0,1,14,0A87,87,0,0,1,284.16,431.19Z"/><path class="cls-1" d="M370.09,215a7,7,0,0,1-7-7V170.07C363.09,84,293.08,14,207,14S51,84,51,170.07v37.35a7,7,0,0,1-14,0V170.07C37,76.29,113.25,0,207,0S377.09,76.29,377.09,170.07V208A7,7,0,0,1,370.09,215Z"/><path class="cls-1" d="M60.54,352.07H52.63A52.69,52.69,0,0,1,0,299.44V253a52.69,52.69,0,0,1,52.63-52.62h7.91A27.41,27.41,0,0,1,87.92,227.8v96.89A27.42,27.42,0,0,1,60.54,352.07ZM52.63,214.42A38.66,38.66,0,0,0,14,253v46.4A38.66,38.66,0,0,0,52.63,338h7.91a13.39,13.39,0,0,0,13.38-13.38V227.8a13.39,13.39,0,0,0-13.38-13.38Z"/><path class="cls-1" d="M361.43,352.07h-7.91a27.42,27.42,0,0,1-27.39-27.38V227.8a27.42,27.42,0,0,1,27.39-27.38h7.91A52.68,52.68,0,0,1,414.05,253v46.4A52.68,52.68,0,0,1,361.43,352.07Zm-7.91-137.65a13.4,13.4,0,0,0-13.39,13.38v96.89a13.4,13.4,0,0,0,13.39,13.38h7.91a38.67,38.67,0,0,0,38.62-38.63V253a38.66,38.66,0,0,0-38.62-38.62Z"/><path class="cls-1" d="M261.91,454H231.22a27,27,0,0,1,0-54h30.69a27,27,0,1,1,0,54Zm-30.67-40a13,13,0,0,0,0,26H261.9a13,13,0,0,0,0-26Z"/></g></svg>